<svg width="495" height="269" viewBox="0 0 495 269" fill="none" xmlns="http://www.w3.org/2000/svg">
<path fill-rule="evenodd" clip-rule="evenodd" d="M425 44C422.791 44 421 45.7909 421 48V51.7963L411.401 57.6461C410.762 58.0358 410.762 58.9642 411.401 59.3539L421 65.2037V69C421 71.2091 422.791 73 425 73H459C461.209 73 463 71.2091 463 69V48C463 45.7909 461.209 44 459 44H425Z" fill="white"/>
<mask id="path-2-inside-1_152_77" fill="white">
<path fill-rule="evenodd" clip-rule="evenodd" d="M399 65C401.209 65 403 66.7909 403 69V72.7963L412.599 78.6461C413.238 79.0358 413.238 79.9642 412.599 80.3539L403 86.2037V90C403 92.2091 401.209 94 399 94H365C362.791 94 361 92.2091 361 90V69C361 66.7909 362.791 65 365 65H399Z"/>
</mask>
<path d="M403 72.7963L402.48 73.6502L402 73.358V72.7963H403ZM412.599 78.6461L412.079 79.5H412.079L412.599 78.6461ZM412.599 80.3539L413.119 81.2078H413.119L412.599 80.3539ZM403 86.2037H402V85.642L402.48 85.3498L403 86.2037ZM402 69C402 67.3431 400.657 66 399 66V64C401.762 64 404 66.2386 404 69H402ZM402 72.7963V69H404V72.7963H402ZM412.079 79.5L402.48 73.6502L403.521 71.9424L413.119 77.7922L412.079 79.5ZM412.079 79.5L412.079 79.5L413.119 77.7922C414.398 78.5716 414.398 80.4284 413.119 81.2078L412.079 79.5ZM402.48 85.3498L412.079 79.5L413.119 81.2078L403.521 87.0576L402.48 85.3498ZM402 90V86.2037H404V90H402ZM399 93C400.657 93 402 91.6569 402 90H404C404 92.7614 401.762 95 399 95V93ZM365 93H399V95H365V93ZM362 90C362 91.6569 363.343 93 365 93V95C362.239 95 360 92.7614 360 90H362ZM362 69V90H360V69H362ZM365 66C363.343 66 362 67.3431 362 69H360C360 66.2386 362.239 64 365 64V66ZM399 66H365V64H399V66Z" fill="white" mask="url(#path-2-inside-1_152_77)"/>
<circle cx="392" cy="123" r="5.5" stroke="white"/>
<circle cx="361.5" cy="184.5" r="9" stroke="white"/>
<circle cx="435" cy="19" r="4.5" stroke="white"/>
<circle cx="461" cy="188" r="4.5" stroke="white"/>
<path d="M336 117C385.965 199 399.954 131.5 425.436 159.5C445.822 181.9 428.934 207.167 417.942 217" stroke="white" stroke-width="3" stroke-dasharray="2 2"/>
<path d="M420 185C446.5 173.072 467.5 154.683 448 136.294C432.4 121.582 449.5 107.301 460 102" stroke="white" stroke-width="3" stroke-dasharray="2 2"/>
<path d="M291 65.8049C361.956 38.1082 371.501 17.4392 337.475 19.0927C310.254 20.4154 306.215 37.0058 307.598 45.1356C311.056 60.8441 327.267 85.2337 364.446 57.1237C401.626 29.0136 405.111 26.1199 402.207 28.1868" stroke="white" stroke-width="3" stroke-dasharray="2 2"/>
<path d="M420.372 232.25L429.5 215.066L438.628 232.25H420.372Z" stroke="white"/>
<path d="M482.294 91L477.5 99.9418L472.706 91H482.294Z" stroke="white"/>
</svg>
