<svg class="svg logo logo--footer" width="100%" height="100%" viewBox="0 0 5801 451" fill="none"
  xmlns="http://www.w3.org/2000/svg">
  <g clip-path="url(#clip0_554_598)">
    <path
      d="M690.22 333.27H682C676.355 333.273 670.943 335.517 666.952 339.509C662.962 343.502 660.72 348.915 660.72 354.56V424.27C660.72 429.914 658.478 435.326 654.487 439.317C650.497 443.308 645.084 445.55 639.44 445.55H531.44C525.796 445.55 520.384 443.308 516.393 439.317C512.402 435.326 510.16 429.914 510.16 424.27V20.27C510.165 14.6322 512.407 9.22668 516.392 5.23922C520.378 1.25175 525.782 -0.992058 531.42 -1H725.14C849.54 -1 928.64 64.08 928.64 167.42C928.64 224.22 904.86 268.62 862.52 297.13C857.921 300.312 854.773 305.189 853.768 310.691C852.763 316.192 853.983 321.868 857.16 326.47L915.58 412.32C917.754 415.517 919.015 419.245 919.229 423.105C919.442 426.965 918.6 430.81 916.792 434.227C914.985 437.643 912.28 440.503 908.969 442.498C905.658 444.493 901.866 445.548 898 445.55H788.75C785.27 445.552 781.842 444.7 778.768 443.068C775.694 441.436 773.068 439.074 771.12 436.19L707.85 342.63C705.9 339.748 703.274 337.388 700.2 335.756C697.127 334.124 693.7 333.271 690.22 333.27ZM715.57 115.1H667.51C665.704 115.1 663.972 115.817 662.695 117.095C661.418 118.372 660.7 120.104 660.7 121.91V212.91C660.7 213.804 660.876 214.69 661.219 215.516C661.561 216.342 662.062 217.093 662.695 217.725C663.327 218.358 664.078 218.859 664.904 219.202C665.73 219.544 666.616 219.72 667.51 219.72H715.57C757.03 219.72 776.8 199.94 776.8 167.4C776.8 134.86 757 115.1 715.57 115.1Z"
      fill="white" />
    <path
      d="M1289.48 368H1153.48C1148.53 367.997 1143.69 369.494 1139.6 372.295C1135.52 375.096 1132.37 379.069 1130.59 383.69L1112.69 430C1110.91 434.62 1107.76 438.592 1103.68 441.391C1099.59 444.19 1094.75 445.685 1089.8 445.68H991C986.932 445.686 982.925 444.678 979.344 442.747C975.763 440.816 972.72 438.023 970.489 434.62C968.259 431.217 966.912 427.312 966.57 423.258C966.228 419.204 966.901 415.128 968.53 411.4L1137.53 25.63C1140.88 18.0069 1146.37 11.5238 1153.35 6.97239C1160.32 2.42096 1168.46 -0.00178241 1176.79 1.91289e-05H1268.7C1277.04 -0.00785309 1285.19 2.41421 1292.17 6.96981C1299.15 11.5254 1304.65 18.017 1308 25.65L1477 411.42C1478.63 415.148 1479.31 419.224 1478.97 423.28C1478.63 427.335 1477.28 431.241 1475.05 434.645C1472.82 438.048 1469.77 440.842 1466.19 442.772C1462.61 444.702 1458.6 445.709 1454.53 445.7H1353.14C1348.19 445.7 1343.35 444.2 1339.27 441.398C1335.18 438.595 1332.04 434.622 1330.26 430L1312.37 383.66C1310.58 379.045 1307.44 375.08 1303.35 372.285C1299.27 369.49 1294.43 367.996 1289.48 368ZM1261.15 250.2L1228 164.69C1227.51 163.345 1226.61 162.185 1225.44 161.365C1224.26 160.545 1222.86 160.106 1221.43 160.106C1220 160.106 1218.6 160.545 1217.42 161.365C1216.25 162.185 1215.35 163.345 1214.86 164.69L1181.76 250.22C1181.34 251.286 1181.19 252.438 1181.32 253.575C1181.45 254.713 1181.86 255.801 1182.51 256.745C1183.15 257.689 1184.02 258.459 1185.04 258.988C1186.06 259.517 1187.19 259.789 1188.33 259.78H1254.55C1255.7 259.795 1256.83 259.526 1257.85 258.999C1258.87 258.471 1259.75 257.7 1260.4 256.755C1261.05 255.809 1261.46 254.717 1261.59 253.576C1261.72 252.435 1261.57 251.279 1261.15 250.21V250.2Z"
      fill="white" />
    <path
      d="M1972.35 17.07V428.63C1972.35 430.874 1971.91 433.095 1971.05 435.168C1970.18 437.24 1968.92 439.123 1967.34 440.708C1965.75 442.293 1963.86 443.55 1961.79 444.407C1959.72 445.263 1957.49 445.703 1955.25 445.7H1856.58C1854.08 445.7 1851.61 445.152 1849.34 444.095C1847.07 443.038 1845.07 441.497 1843.46 439.58L1709.12 279.29C1698.87 267.06 1678.9 274.29 1678.9 290.29V428.63C1678.9 430.874 1678.45 433.096 1677.59 435.169C1676.73 437.241 1675.47 439.123 1673.88 440.709C1672.29 442.294 1670.41 443.55 1668.33 444.407C1666.26 445.263 1664.03 445.703 1661.79 445.7H1549.26C1544.73 445.703 1540.38 443.906 1537.18 440.705C1533.97 437.504 1532.17 433.161 1532.16 428.63V17.07C1532.17 12.5392 1533.97 8.19591 1537.18 4.99495C1540.38 1.79399 1544.73 -0.00264254 1549.26 1.17175e-05H1647.94C1650.44 -0.000210996 1652.91 0.547614 1655.18 1.60495C1657.45 2.66228 1659.45 4.20344 1661.06 6.12001L1795.4 166.41C1805.65 178.65 1825.62 171.41 1825.62 155.46V17.07C1825.62 14.8257 1826.07 12.6039 1826.93 10.5315C1827.79 8.45902 1829.05 6.57651 1830.64 4.99141C1832.23 3.40632 1834.11 2.14968 1836.19 1.29325C1838.26 0.436828 1840.49 -0.00261626 1842.73 1.17175e-05H1955.25C1957.49 -0.00261609 1959.72 0.436901 1961.79 1.29345C1963.86 2.15 1965.75 3.40679 1967.34 4.99202C1968.92 6.57724 1970.18 8.45984 1971.05 10.5322C1971.91 12.6046 1972.35 14.8262 1972.35 17.07Z"
      fill="white" />
    <path
      d="M2061 18.0498C2061.02 13.266 2062.93 8.68479 2066.32 5.31056C2069.72 1.93633 2074.31 0.0444853 2079.09 0.0498159H2281.09C2430.37 0.0498159 2533.09 84.7398 2533.09 222.9C2533.09 361.06 2430.38 445.75 2281.09 445.75H2079.09C2076.71 445.752 2074.36 445.286 2072.16 444.377C2069.97 443.468 2067.97 442.135 2066.29 440.454C2064.61 438.772 2063.28 436.776 2062.37 434.579C2061.46 432.382 2061 430.027 2061 427.65V18.0498ZM2274.71 328.54C2337.88 328.54 2381.26 290.98 2381.26 222.85C2381.26 154.72 2337.88 117.16 2274.71 117.16H2229.65C2227.28 117.157 2224.93 117.622 2222.73 118.528C2220.54 119.433 2218.55 120.762 2216.87 122.438C2215.19 124.114 2213.85 126.105 2212.94 128.296C2212.03 130.488 2211.56 132.837 2211.56 135.21V310.49C2211.56 312.863 2212.03 315.212 2212.94 317.403C2213.85 319.595 2215.19 321.585 2216.87 323.261C2218.55 324.937 2220.54 326.266 2222.73 327.172C2224.93 328.078 2227.28 328.542 2229.65 328.54H2274.71Z"
      fill="white" />
    <path
      d="M2713.38 434.73C2704.58 439.657 2695.24 443.575 2685.56 446.41C2676.61 449.071 2667.33 450.448 2658 450.5C2647.51 450.548 2637.08 449.021 2627.05 445.97C2617.7 443.17 2608.9 438.771 2601.05 432.97C2593.74 427.568 2587.63 420.702 2583.12 412.81C2578.61 404.825 2576.31 395.788 2576.43 386.62C2576.28 379.624 2577.63 372.677 2580.37 366.24C2582.86 360.582 2586.23 355.359 2590.37 350.77C2594.43 346.345 2599.01 342.417 2604 339.07C2608.96 335.69 2613.77 332.613 2618.43 329.84C2615.67 327.582 2613.09 325.122 2610.7 322.48C2608.16 319.678 2605.94 316.606 2604.08 313.32C2602.07 309.787 2600.52 306.013 2599.46 302.09C2598.28 297.601 2597.7 292.972 2597.76 288.33C2597.63 280.931 2599.35 273.618 2602.76 267.05C2606.06 260.825 2610.71 255.414 2616.37 251.21C2622.44 246.737 2629.27 243.406 2636.53 241.38C2644.59 239.101 2652.93 237.976 2661.3 238.04C2670.61 237.938 2679.89 239.088 2688.9 241.46C2696.55 243.437 2703.77 246.829 2710.18 251.46C2716.02 255.804 2720.71 261.496 2723.87 268.05C2726.71 274.079 2728.31 280.613 2728.59 287.27C2729.13 298.228 2725.85 309.033 2719.32 317.85L2719.18 318.05C2716.12 322.201 2712.63 326.013 2708.76 329.42C2706.61 331.34 2704.39 333.147 2702.08 334.84C2701.34 335.383 2700.72 336.072 2700.26 336.866C2699.8 337.66 2699.51 338.54 2699.41 339.451C2699.31 340.363 2699.4 341.285 2699.67 342.161C2699.94 343.037 2700.39 343.847 2700.99 344.54L2713.41 359C2714.17 359.871 2715.15 360.53 2716.24 360.914C2717.34 361.298 2718.51 361.395 2719.65 361.194C2720.79 360.993 2721.86 360.501 2722.76 359.767C2723.66 359.032 2724.35 358.08 2724.77 357C2725.34 355.61 2725.86 354.22 2726.33 352.81L2726.49 352.35C2727.85 348.306 2730.44 344.793 2733.91 342.308C2737.37 339.824 2741.54 338.495 2745.8 338.51L2778.26 338.61C2778.13 350.579 2775.57 362.398 2770.74 373.35C2766.69 382.507 2761.51 391.124 2755.33 399C2754.35 400.219 2753.82 401.744 2753.84 403.31C2753.86 404.876 2754.43 406.386 2755.44 407.58L2778.44 434.09C2779.29 435.103 2779.84 436.338 2780.02 437.651C2780.2 438.963 2780.01 440.3 2779.46 441.506C2778.91 442.711 2778.03 443.736 2776.92 444.461C2775.81 445.185 2774.51 445.581 2773.19 445.6H2737.89C2733.28 445.6 2728.72 444.633 2724.5 442.763C2720.29 440.892 2716.51 438.159 2713.42 434.74M2656.29 405.13C2661.79 405.128 2667.26 404.381 2672.55 402.91C2673.62 402.591 2674.58 402.007 2675.36 401.214C2676.14 400.42 2676.71 399.442 2677.01 398.371C2677.31 397.3 2677.33 396.171 2677.07 395.088C2676.82 394.006 2676.3 393.005 2675.55 392.18L2652.2 366.06C2651.1 364.831 2649.59 364.049 2647.96 363.864C2646.32 363.68 2644.67 364.106 2643.33 365.06C2642.8 365.44 2642.26 365.83 2641.74 366.22C2639.72 367.693 2637.9 369.417 2636.31 371.35C2634.78 373.232 2633.55 375.34 2632.66 377.6C2631.75 380.021 2631.3 382.592 2631.33 385.18C2631.24 388.328 2632.07 391.434 2633.71 394.12C2635.26 396.569 2637.31 398.67 2639.71 400.29C2642.16 401.934 2644.86 403.167 2647.71 403.94C2650.5 404.704 2653.37 405.101 2656.26 405.12M2652.26 293.54C2652.23 295.18 2652.48 296.813 2653 298.37C2653.49 299.789 2654.11 301.159 2654.86 302.46C2655.61 303.761 2656.46 305.004 2657.39 306.18C2658.33 307.37 2658.88 308.18 2660.74 308.44C2662.42 308.65 2663.21 308.04 2664.91 307C2666.57 305.977 2668.11 304.781 2669.52 303.43C2670.94 302.046 2672.12 300.438 2673.01 298.67C2673.99 296.658 2674.48 294.439 2674.43 292.2C2674.57 289.127 2673.53 286.117 2671.52 283.79C2670.51 282.711 2669.27 281.866 2667.9 281.314C2666.52 280.761 2665.05 280.514 2663.57 280.59C2659.79 280.59 2656.96 281.88 2655.08 284.46C2653.18 287.101 2652.19 290.288 2652.26 293.54Z"
      fill="white" />
    <path
      d="M3406.93 0H3510.74C3512.55 0.00131015 3514.34 0.359702 3516.02 1.05468C3517.69 1.74965 3519.21 2.76757 3520.49 4.05021C3521.77 5.33285 3522.78 6.85504 3523.47 8.52972C3524.16 10.2044 3524.51 11.9987 3524.51 13.81V431.89C3524.51 433.701 3524.16 435.496 3523.47 437.17C3522.78 438.845 3521.77 440.367 3520.49 441.65C3519.21 442.932 3517.69 443.95 3516.02 444.645C3514.34 445.34 3512.55 445.699 3510.74 445.7H3406.93C3405.12 445.699 3403.33 445.34 3401.65 444.645C3399.98 443.95 3398.46 442.932 3397.18 441.65C3395.9 440.367 3394.89 438.845 3394.2 437.17C3393.51 435.496 3393.16 433.701 3393.16 431.89V13.81C3393.16 11.9987 3393.51 10.2044 3394.2 8.52972C3394.89 6.85504 3395.9 5.33285 3397.18 4.05021C3398.46 2.76757 3399.98 1.74965 3401.65 1.05468C3403.33 0.359702 3405.12 0.00131015 3406.93 0Z"
      fill="white" />
    <path
      d="M5227.5 385.44H5048.05L5027.13 437.1C5026.11 439.64 5024.35 441.816 5022.08 443.348C5019.81 444.881 5017.13 445.7 5014.39 445.7H4905.87C4903.59 445.696 4901.35 445.126 4899.34 444.041C4897.34 442.956 4895.63 441.391 4894.38 439.485C4893.13 437.579 4892.37 435.392 4892.17 433.121C4891.97 430.849 4892.34 428.564 4893.24 426.47L5069.83 15.78C5071.84 11.0994 5075.18 7.11039 5079.43 4.30596C5083.68 1.50154 5088.67 0.0045648 5093.76 1.00456e-05H5182.12C5187.22 -0.00446886 5192.2 1.48887 5196.46 4.2944C5200.71 7.09994 5204.05 11.094 5206.05 15.78L5382.65 426.47C5383.55 428.566 5383.92 430.853 5383.72 433.126C5383.52 435.399 5382.76 437.587 5381.51 439.493C5380.25 441.399 5378.54 442.965 5376.54 444.048C5374.53 445.131 5372.28 445.699 5370 445.7H5261.44C5258.71 445.698 5256.05 444.885 5253.79 443.365C5251.52 441.844 5249.76 439.684 5248.73 437.16L5227.5 385.44ZM5110.41 283.6H5165.13C5167.44 283.598 5169.71 283.029 5171.74 281.943C5173.78 280.856 5175.51 279.286 5176.8 277.37C5178.08 275.454 5178.88 273.251 5179.11 270.956C5179.34 268.661 5179 266.344 5178.13 264.21L5140.75 167.21C5140.53 166.629 5140.13 166.129 5139.62 165.776C5139.11 165.424 5138.5 165.235 5137.88 165.235C5137.25 165.235 5136.64 165.424 5136.13 165.776C5135.62 166.129 5135.22 166.629 5135 167.21L5097.46 264.21C5096.58 266.34 5096.25 268.653 5096.48 270.945C5096.7 273.237 5097.49 275.438 5098.77 277.353C5100.05 279.269 5101.78 280.84 5103.81 281.93C5105.84 283.019 5108.11 283.593 5110.41 283.6Z"
      fill="white" />
    <path
      d="M5497 0.160156H5602C5603.73 0.161466 5605.44 0.503821 5607.04 1.16764C5608.64 1.83145 5610.09 2.8037 5611.31 4.02877C5612.53 5.25384 5613.5 6.70768 5614.16 8.30714C5614.82 9.9066 5615.15 11.6203 5615.15 13.3502V336.89C5615.15 338.464 5615.77 339.973 5616.89 341.087C5618 342.201 5619.51 342.827 5621.08 342.83H5787.38C5790.87 342.835 5794.21 344.225 5796.68 346.695C5799.15 349.164 5800.53 352.511 5800.53 356V432.5C5800.53 435.991 5799.15 439.341 5796.68 441.812C5794.22 444.284 5790.87 445.675 5787.38 445.68H5497C5493.51 445.675 5490.16 444.284 5487.7 441.812C5485.23 439.341 5483.85 435.991 5483.85 432.5V13.3502C5483.85 11.6206 5484.19 9.90755 5484.84 8.30869C5485.5 6.70983 5486.47 5.2565 5487.69 4.0317C5488.91 2.80689 5490.36 1.83459 5491.96 1.17031C5493.56 0.506032 5495.27 0.162781 5497 0.160156Z"
      fill="white" />
    <path
      d="M4211.35 -0.509766H4315.9C4317.67 -0.505848 4319.42 -0.152924 4321.05 0.52876C4322.68 1.21044 4324.16 2.20747 4325.41 3.46265C4326.65 4.71784 4327.64 6.20647 4328.3 7.84316C4328.97 9.47985 4329.31 11.2324 4329.3 13.0002V432.3C4329.3 434.063 4328.96 435.81 4328.29 437.44C4327.62 439.071 4326.63 440.553 4325.39 441.802C4324.14 443.051 4322.66 444.043 4321.04 444.72C4319.41 445.398 4317.66 445.748 4315.9 445.75H4211.35C4209.59 445.748 4207.84 445.398 4206.21 444.72C4204.59 444.043 4203.11 443.051 4201.86 441.802C4200.62 440.553 4199.63 439.071 4198.96 437.44C4198.29 435.81 4197.95 434.063 4197.95 432.3V13.0002C4197.94 11.2324 4198.28 9.47985 4198.95 7.84316C4199.61 6.20647 4200.6 4.71784 4201.84 3.46265C4203.09 2.20747 4204.57 1.21044 4206.2 0.52876C4207.83 -0.152924 4209.58 -0.505848 4211.35 -0.509766Z"
      fill="white" />
    <path
      d="M4446.93 13.78V89.12C4446.93 90.9278 4447.28 92.7187 4447.97 94.3903C4448.66 96.0619 4449.67 97.5815 4450.94 98.8621C4452.22 100.143 4453.73 101.159 4455.4 101.854C4457.07 102.549 4458.86 102.907 4460.67 102.91H4569.3V431.91C4569.29 435.554 4570.73 439.053 4573.3 441.638C4575.87 444.223 4579.36 445.684 4583 445.7H4686.88C4688.69 445.697 4690.48 445.339 4692.14 444.645C4693.81 443.951 4695.33 442.935 4696.6 441.656C4697.88 440.376 4698.89 438.858 4699.58 437.187C4700.27 435.517 4700.62 433.727 4700.62 431.92V102.92H4809.88C4811.69 102.917 4813.48 102.559 4815.15 101.864C4816.82 101.17 4818.33 100.153 4819.61 98.8727C4820.89 97.5922 4821.9 96.0727 4822.59 94.4011C4823.28 92.7294 4823.63 90.9383 4823.63 89.13V13.78C4823.63 10.1366 4822.19 6.64065 4819.62 4.05783C4817.05 1.47502 4813.56 0.0158744 4809.92 0L4460.67 0C4458.86 0.00262453 4457.07 0.361137 4455.41 1.05507C4453.74 1.749 4452.22 2.76476 4450.95 4.04435C4449.67 5.32394 4448.66 6.84231 4447.97 8.51275C4447.28 10.1832 4446.93 11.973 4446.93 13.78Z"
      fill="white" />
    <path
      d="M4065 204.09C4075.29 204.09 4083.73 213.22 4083.61 224.38C4083.29 252.887 4079.03 279.167 4070.83 303.22C4060.72 332.867 4045.92 358.253 4026.43 379.38C4006.82 400.572 3982.87 417.285 3956.21 428.38C3928.88 439.933 3899.06 445.707 3866.77 445.7C3845.67 445.77 3824.64 443.097 3804.23 437.75C3784.69 432.637 3765.88 425.084 3748.23 415.27C3731.02 405.657 3715.1 393.896 3700.86 380.27C3686.72 366.828 3674.37 351.619 3664.11 335.02C3653.87 318.428 3645.92 300.526 3640.49 281.8C3632.19 253.071 3630.01 222.922 3634.07 193.297C3638.14 163.672 3648.37 135.228 3664.11 109.8C3674.38 93.3016 3686.73 78.1969 3700.86 64.86C3715.12 51.3482 3731.03 39.7048 3748.23 30.21C3784.54 10.2755 3825.31 -0.118895 3866.73 3.25955e-05C3899.46 3.25955e-05 3930.05 5.8267 3958.52 17.48C3979.21 25.8926 3998.61 37.1548 4016.18 50.94C4025.83 58.53 4026.71 73.81 4017.93 82.57L3970.93 129.48C3969.3 131.161 3967.36 132.502 3965.21 133.423C3963.06 134.345 3960.75 134.828 3958.41 134.846C3956.07 134.864 3953.75 134.415 3951.59 133.526C3949.43 132.638 3947.46 131.327 3945.81 129.67C3937.77 121.872 3928.61 115.304 3918.65 110.18C3903.01 102.06 3885.7 98 3866.73 98C3851.01 97.8878 3835.44 101.13 3821.07 107.51C3807.1 113.712 3794.49 122.632 3784 133.75C3773.25 145.217 3764.77 158.612 3759 173.23C3752.74 189.016 3749.61 205.869 3749.78 222.85C3749.61 239.835 3752.74 256.691 3759 272.48C3764.77 287.11 3773.25 300.518 3784 312C3794.49 323.112 3807.08 332.025 3821.05 338.22C3835.42 344.608 3850.99 347.854 3866.71 347.74C3896.11 347.74 3918.73 342.33 3934.58 331.51C3949.87 321.057 3960.2 306.723 3965.58 288.51C3965.65 288.291 3965.68 288.058 3965.65 287.829C3965.62 287.6 3965.54 287.381 3965.41 287.188C3965.28 286.995 3965.11 286.834 3964.91 286.716C3964.71 286.599 3964.49 286.528 3964.26 286.51L3881.56 286.24C3871.19 286.24 3862.79 277.02 3862.81 265.75C3862.81 252.54 3862.81 243.22 3862.93 224.17C3862.98 212.91 3871.4 203.78 3881.77 203.8L4065 204.09Z"
      fill="white" />
    <path
      d="M2845.42 58.8901H2767.3C2761.68 58.8901 2757.12 63.4479 2757.12 69.0701V147.19C2757.12 152.812 2761.68 157.37 2767.3 157.37H2845.42C2851.04 157.37 2855.6 152.812 2855.6 147.19V69.0701C2855.6 63.4479 2851.04 58.8901 2845.42 58.8901Z"
      fill="white" />
    <path
      d="M2964.87 137.51H2904.91C2899.62 137.51 2895.34 141.794 2895.34 147.08V207.04C2895.34 212.325 2899.62 216.61 2904.91 216.61H2964.87C2970.16 216.61 2974.44 212.325 2974.44 207.04V147.08C2974.44 141.794 2970.16 137.51 2964.87 137.51Z"
      fill="white" />
    <path
      d="M2869.53 218.02H2802.96C2797.34 218.02 2792.78 222.578 2792.78 228.2V294.77C2792.78 300.392 2797.34 304.95 2802.96 304.95H2869.53C2875.15 304.95 2879.71 300.392 2879.71 294.77V228.2C2879.71 222.578 2875.15 218.02 2869.53 218.02Z"
      fill="white" />
    <path
      d="M410.76 230.63C408.809 228.401 407.729 225.542 407.72 222.579C407.711 219.617 408.773 216.751 410.71 214.51C430.59 191.445 441.698 162.108 442.08 131.66C443.08 62.66 389.08 4.66 320.85 0.29H320.6L180.6 0.13L52.8 0H36.8H35.57C26.138 -3.72741e-07 17.0921 3.74617 10.4217 10.4147C3.75137 17.0832 0.00265308 26.128 1.4062e-06 35.56V36.78V37.78V409.78C-0.00131247 414.453 0.918095 419.08 2.70569 423.397C4.49329 427.715 7.11404 431.638 10.4182 434.942C13.7224 438.246 17.6452 440.867 21.9626 442.654C26.2799 444.442 30.9072 445.361 35.58 445.36H305C305 445.36 308 445.3 309.68 445.31H310.33C383.33 447.03 443.11 389.01 443.11 316.31C443.133 284.761 431.628 254.291 410.76 230.63ZM35.41 379.94V74.63C35.89 74.63 36.41 74.63 36.86 74.63H135C144.757 74.63 154.115 78.5061 161.014 85.4055C167.914 92.305 171.79 101.663 171.79 111.42V113.33C171.797 122.05 168.713 130.491 163.085 137.152C157.457 143.812 149.649 148.262 141.05 149.71H140.51L87 150.61C66.68 150.61 52.35 165.32 52.35 185.68C52.3426 195.16 55.9912 204.278 62.5365 211.137C69.0818 217.995 78.0197 222.065 87.49 222.5L230.62 223.68C235.457 223.683 240.246 224.638 244.714 226.492C249.181 228.346 253.239 231.063 256.657 234.486C260.074 237.909 262.784 241.971 264.631 246.442C266.477 250.912 267.425 255.703 267.42 260.54V261.3C267.423 270.349 264.097 279.082 258.076 285.837C252.055 292.592 243.76 296.896 234.77 297.93H234.35H195.1C176.72 297.93 160.1 310.77 157.29 328.93C155.858 337.857 157.753 347 162.615 354.622C167.478 362.245 174.971 367.817 183.67 370.28C206.57 370.96 222.79 371.6 222.79 371.6C244.18 371.87 261.44 388.29 261.44 408.51C261.44 408.93 261.44 409.34 261.39 409.75H65.3C57.3857 409.753 49.7936 406.615 44.1899 401.027C38.5862 395.438 35.4285 387.854 35.41 379.94Z"
      fill="white" />
    <path
      d="M94.5898 296.4H81.8498C72.0792 296.4 62.7088 300.282 55.8 307.191C48.8911 314.099 45.0098 323.47 45.0098 333.24C45.0098 343.011 48.8911 352.381 55.8 359.29C62.7088 366.199 72.0792 370.08 81.8498 370.08H94.5898C104.36 370.08 113.731 366.199 120.64 359.29C127.548 352.381 131.43 343.011 131.43 333.24C131.43 323.47 127.548 314.099 120.64 307.191C113.731 300.282 104.36 296.4 94.5898 296.4Z"
      fill="white" />
    <path
      d="M3064.45 0.19007V7.00906e-05H2904.75C2901.37 -0.00781811 2898.03 0.65019 2894.91 1.93645C2891.78 3.22271 2888.94 5.11198 2886.55 7.49619C2884.16 9.88039 2882.26 12.7127 2880.97 15.8312C2879.67 18.9497 2879 22.293 2879 25.6701V95.0801C2879.02 99.3097 2880.72 103.359 2883.71 106.342C2886.71 109.325 2890.77 111 2895 111H3036.84C3037.87 110.999 3038.9 111.201 3039.86 111.596C3040.81 111.991 3041.68 112.57 3042.42 113.301C3043.15 114.032 3043.73 114.9 3044.13 115.855C3044.52 116.811 3044.73 117.835 3044.73 118.87V219.33C3044.73 220.366 3044.53 221.391 3044.13 222.348C3043.73 223.305 3043.15 224.174 3042.42 224.906C3041.69 225.637 3040.82 226.218 3039.86 226.613C3038.9 227.009 3037.88 227.211 3036.84 227.21H2990.46C2988.37 227.209 2986.29 227.62 2984.36 228.421C2982.42 229.221 2980.66 230.395 2979.18 231.875C2977.7 233.356 2976.53 235.113 2975.72 237.048C2974.92 238.982 2974.51 241.056 2974.51 243.15V326.81C2974.51 328.901 2973.67 330.905 2972.2 332.383C2970.72 333.86 2968.71 334.69 2966.62 334.69H2895C2890.77 334.69 2886.71 336.366 2883.71 339.352C2880.71 342.337 2879.02 346.389 2879 350.62V420C2879 423.374 2879.67 426.714 2880.96 429.83C2882.26 432.946 2884.15 435.776 2886.54 438.16C2888.93 440.543 2891.76 442.434 2894.88 443.722C2898 445.011 2901.34 445.673 2904.71 445.67H3063.71V445.5C3183.81 441.91 3280.08 343.63 3280.08 222.82C3280.1 102.29 3184.21 4.15007 3064.45 0.19007Z"
      fill="white" />
  </g>
  <defs>
    <clipPath id="clip0_554_598">
      <rect width="5800.53" height="450.54" fill="white" />
    </clipPath>
  </defs>
</svg>