<svg width="55" height="55" viewBox="0 0 55 55" fill="none" xmlns="http://www.w3.org/2000/svg">
<g clip-path="url(#clip0_188_808)">
<path fill-rule="evenodd" clip-rule="evenodd" d="M9.60303 26.7831V37.8519L15.4894 37.8227C21.6885 37.7918 21.8035 37.7863 23.104 37.452C23.7825 37.2777 24.8782 36.7035 25.4264 36.2351C26.5298 35.2921 27.2932 33.9862 27.594 32.5273C27.7241 31.8959 27.7383 30.6028 27.6223 29.925C27.3269 28.1982 26.3174 26.8865 24.7126 26.1445L24.3463 25.9751L24.8173 25.6907C25.4765 25.2927 26.2246 24.5147 26.499 23.942C27.1897 22.5004 27.1804 20.3471 26.4773 18.871C25.6502 17.1347 23.8904 16.0624 21.4255 15.7929C20.9616 15.7422 18.7374 15.7144 15.1548 15.7144H9.60303V26.7831ZM32.4499 18.1259V19.4736H37.2009H41.9519V18.1259V16.7783H37.2009H32.4499V18.1259ZM20.7121 19.7121C21.472 19.8773 21.9564 20.1486 22.2298 20.562C22.5191 20.9994 22.5976 21.2979 22.598 21.9626C22.5988 23.0095 22.2172 23.6752 21.4042 24.0456C20.6262 24.4001 20.1928 24.4385 16.968 24.4385H14.0047V21.9852V19.5319L17.0964 19.5651C19.5777 19.5916 20.2915 19.6206 20.7121 19.7121ZM36.1528 21.1142C32.9914 21.4414 30.5073 23.4633 29.629 26.4244C29.0504 28.3747 29.0192 31.1151 29.5541 32.9932C30.1153 34.9634 31.0803 36.1827 32.9225 37.2498C34.5079 38.1681 36.7029 38.5885 38.6381 38.3445C40.7582 38.0772 42.1666 37.4291 43.4203 36.1439C44.2922 35.2501 44.8941 34.2526 45.0868 33.3818L45.1509 33.0916H42.9567H40.7624L40.5217 33.4737C40.0777 34.1784 39.3873 34.6358 38.4699 34.8331C36.611 35.2331 34.6607 34.4355 33.9636 32.9901C33.7278 32.5012 33.4979 31.618 33.4979 31.2007V30.8929H39.4473H45.3967L45.3552 29.5276C45.2835 27.1731 44.9253 25.8059 44.0121 24.403C42.7081 22.3998 40.8834 21.3627 38.2139 21.1076C37.349 21.0248 37.0059 21.026 36.1528 21.1142ZM38.1876 24.6823C39.1807 24.896 40.097 25.5745 40.4843 26.3827C40.7074 26.8483 40.9039 27.5391 40.9039 27.8579V28.0557H37.2345H33.5651L33.6067 27.8607C33.7266 27.2982 33.9512 26.6447 34.1434 26.299C34.4297 25.784 34.9927 25.2078 35.429 24.9833C36.1458 24.6147 37.2919 24.4896 38.1876 24.6823ZM21.1134 28.2847C21.7367 28.4764 22.0911 28.6894 22.4505 29.0885C22.9287 29.6198 23.0542 30.0168 23.0433 30.9638C23.0229 32.7272 22.1879 33.6866 20.4516 33.9414C20.1914 33.9797 18.6343 34.0115 16.9915 34.0123L14.0047 34.0137V31.0659V28.1181L17.3758 28.1451C20.2001 28.1678 20.8064 28.1904 21.1134 28.2847Z" fill="white"/>
<path d="M46.2699 1.74609H8.73022C4.87299 1.74609 1.74609 4.87299 1.74609 8.73022V46.2699C1.74609 50.1271 4.87299 53.254 8.73022 53.254H46.2699C50.1271 53.254 53.254 50.1271 53.254 46.2699V8.73022C53.254 4.87299 50.1271 1.74609 46.2699 1.74609Z" stroke="white" stroke-width="3.49206"/>
</g>
<defs>
<clipPath id="clip0_188_808">
<rect width="55" height="55" fill="white"/>
</clipPath>
</defs>
</svg>
