<svg width="55" height="55" viewBox="0 0 55 55" fill="none" xmlns="http://www.w3.org/2000/svg">
<g clip-path="url(#clip0_188_815)">
<path d="M46.2699 1.74609H8.73022C4.87299 1.74609 1.74609 4.87299 1.74609 8.73022V46.2699C1.74609 50.1271 4.87299 53.254 8.73022 53.254H46.2699C50.1271 53.254 53.254 50.1271 53.254 46.2699V8.73022C53.254 4.87299 50.1271 1.74609 46.2699 1.74609Z" stroke="white" stroke-width="3.49206"/>
<path fill-rule="evenodd" clip-rule="evenodd" d="M25.7077 9.64344C23.2144 9.89967 20.9968 10.667 19.0365 11.9519C15.9788 13.956 14.0032 16.7645 13.2837 20.1305C13.1085 20.9501 13.0952 21.1328 13.0952 22.7263C13.0952 24.3018 13.1098 24.5084 13.2756 25.28C13.5878 26.733 14.0518 27.6847 14.8677 28.5455C15.5713 29.2878 16.5943 29.8953 17.5529 30.1401C17.7269 30.1845 17.9233 30.2365 17.9893 30.2555C18.2487 30.3302 18.7481 29.0112 18.7481 28.2515C18.7481 27.6731 18.6007 27.2704 18.0185 26.2579C17.392 25.1682 17.2399 24.7448 17.1275 23.7771C16.9809 22.5161 17.1635 20.9755 17.6043 19.7543C18.8459 16.3141 22.2601 13.5829 26.0922 12.9643C26.9323 12.8286 28.5524 12.8313 29.3028 12.9695C30.9037 13.2644 32.2686 13.9171 33.5252 14.9889C35.6984 16.8424 36.5504 20.6287 35.7202 24.7446C34.9495 28.5661 32.9502 31.2939 30.5011 31.8656C29.8555 32.0163 28.5867 31.9648 27.9539 31.7623C27.0895 31.4856 26.4072 30.8523 26.1832 30.1185C26.1304 29.9459 26.0963 29.4723 26.0992 28.9531C26.1053 27.8746 26.2326 27.3036 27.0657 24.6154C27.3936 23.5571 27.731 22.3765 27.8155 21.9916C28.0165 21.0757 28.0746 20.0582 27.9572 19.5077C27.7215 18.4025 26.8532 17.6837 25.5014 17.4749C23.6694 17.1921 21.9453 18.7426 21.305 21.2487C20.8832 22.8997 21.0052 24.856 21.6033 26.0306L21.7854 26.3882L21.6722 26.9536C21.6098 27.2645 21.3217 28.432 21.0318 29.5478C20.7419 30.6638 20.3335 32.238 20.124 33.0461C19.4651 35.5895 19.0603 37.7394 18.892 39.5878C18.7552 41.0917 18.8105 43.9053 19.0011 45.1335L19.0419 45.3967L19.3343 45.1685C19.8136 44.7947 20.5716 44.002 21.0012 43.4254C22.4233 41.5166 23.4807 38.6549 24.3062 34.4804C24.4318 33.8454 24.5453 33.3129 24.5585 33.2969C24.5719 33.281 25.0809 33.6023 25.69 34.011C27.626 35.31 28.3735 35.5639 30.2419 35.5565C31.1161 35.5531 31.5271 35.5181 32.0862 35.3999C33.356 35.1315 34.5511 34.6235 35.612 33.9012C36.2951 33.4361 37.6449 32.0935 38.1694 31.3573C40.0285 28.7479 41.0274 25.476 41.0317 21.9816C41.0346 19.6315 40.6709 17.8713 39.8341 16.1842C38.1345 12.7578 34.5348 10.4254 29.8905 9.74095C29.045 9.61637 26.5395 9.55797 25.7077 9.64344Z" fill="white"/>
</g>
<defs>
<clipPath id="clip0_188_815">
<rect width="55" height="55" fill="white"/>
</clipPath>
</defs>
</svg>
