<svg width="55" height="55" viewBox="0 0 55 55" fill="none" xmlns="http://www.w3.org/2000/svg">
<g clip-path="url(#clip0_188_812)">
<path d="M46.2699 1.74609H8.73022C4.87299 1.74609 1.74609 4.87299 1.74609 8.73022V46.2699C1.74609 50.1271 4.87299 53.254 8.73022 53.254H46.2699C50.1271 53.254 53.254 50.1271 53.254 46.2699V8.73022C53.254 4.87299 50.1271 1.74609 46.2699 1.74609Z" stroke="white" stroke-width="3.49206"/>
<path fill-rule="evenodd" clip-rule="evenodd" d="M24.2357 17.4717C23.5715 17.5205 22.7295 17.6504 22.3926 17.756C21.8141 17.9374 21.0931 18.5846 21.2265 18.8028C21.251 18.8429 21.3852 18.8971 21.5247 18.9233C22.1508 19.0408 22.6788 19.3999 22.9156 19.869C23.3202 20.6709 23.5021 23.179 23.2845 24.9546C23.1406 26.1282 23.0798 26.4003 22.8666 26.8258C22.2944 27.9674 20.9803 27.0433 19.5321 24.481C19.0168 23.5692 17.5663 20.6427 17.2427 19.8618C16.8516 18.9179 16.7277 18.7442 16.283 18.5154L15.9076 18.3223L13.0748 18.3428C10.5166 18.3614 10.2204 18.3753 10.0206 18.4856C9.70386 18.6607 9.56855 18.8996 9.61045 19.2103C9.65532 19.5432 10.7297 21.9579 11.5216 23.5052C13.0631 26.5177 14.3687 28.7053 15.7643 30.614C17.8171 33.4213 18.7253 34.3321 20.8226 35.6869C21.8019 36.3195 22.5087 36.6734 23.3825 36.9686C24.5829 37.3742 25.1056 37.4523 26.898 37.4938C28.6817 37.535 29.1943 37.483 29.5722 37.2223C29.8835 37.0076 29.9798 36.7114 30.0379 35.7903C30.0952 34.8813 30.2708 34.1018 30.5122 33.6854C30.7251 33.3181 31.1879 32.8939 31.3864 32.8839C32.0793 32.8493 32.4672 33.1404 33.9146 34.7808C35.2717 36.3188 35.7733 36.7715 36.523 37.1344C36.8609 37.298 37.2756 37.4638 37.4446 37.503C37.8541 37.598 43.3828 37.4913 43.7398 37.3814C44.0932 37.2727 44.4739 36.8952 44.4825 36.6449C44.5064 35.9597 44.4076 35.6509 43.9336 34.927C43.3105 33.9757 42.7752 33.3682 40.9528 31.5441C39.0175 29.607 38.8823 29.4268 38.8796 28.7788C38.8773 28.2348 39.1288 27.8168 40.8278 25.5412C43.2244 22.3311 44.1841 20.7805 44.4509 19.6873C44.6075 19.0463 44.5184 18.737 44.1146 18.5187L43.8272 18.3634L40.3799 18.3866C37.943 18.4029 36.8833 18.4333 36.7644 18.4902C36.5331 18.6006 36.2879 19.0036 35.9805 19.7783C35.1617 21.8417 33.4758 24.8143 32.3649 26.1536C31.9228 26.6866 31.2358 27.2321 31.0065 27.2321C30.6865 27.2321 30.4227 27.0232 30.2227 26.6116L30.0381 26.2314L30.0567 22.6481C30.0769 18.7946 30.0683 18.6808 29.7155 18.172C29.368 17.6709 28.521 17.499 26.2494 17.4689C25.3296 17.4566 24.4234 17.4579 24.2357 17.4717Z" fill="white"/>
</g>
<defs>
<clipPath id="clip0_188_812">
<rect width="55" height="55" fill="white"/>
</clipPath>
</defs>
</svg>
